<svg width="182" height="42" viewBox="0 0 182 42" fill="none" xmlns="http://www.w3.org/2000/svg">
<path d="M33.8605 17.6264C33.8605 14.7589 34.7916 12.3975 36.4847 10.5421C38.2623 8.68664 40.4633 7.84326 43.2568 7.84326C45.627 7.84326 47.6586 8.51796 49.267 9.86736C50.8754 11.2168 51.8912 12.9878 52.2298 15.1806H48.0819C47.574 12.8192 45.627 11.5541 43.0875 11.5541C39.7014 11.5541 37.7544 13.9155 37.7544 17.5421C37.7544 21.1686 39.7861 23.53 43.0875 23.53C45.627 23.53 47.4893 22.2649 48.0819 19.9035H52.3991C52.0605 22.1806 51.1293 23.8674 49.4363 25.2168C47.7433 26.4818 45.7963 27.2409 43.4261 27.2409C40.7172 27.2409 38.4316 26.3131 36.654 24.5421C34.7916 22.8553 33.8605 20.4939 33.8605 17.6264Z" fill="#1E396B"/>
<path d="M61.3721 27.3254C59.1712 27.3254 57.4782 26.6507 56.1237 25.2169C54.7693 23.7832 54.0921 22.1808 54.0921 20.0723C54.0921 17.9639 54.7693 16.3615 56.1237 14.9278C57.3935 13.494 59.1712 12.8193 61.3721 12.8193C63.573 12.8193 65.2661 13.494 66.6205 14.9278C67.8902 16.3615 68.6521 18.0483 68.6521 20.0723C68.6521 22.0964 67.9749 23.7832 66.6205 25.2169C65.2661 26.5663 63.4884 27.3254 61.3721 27.3254ZM57.9014 20.241C57.9014 21.4217 58.24 22.4338 58.8326 23.1085C59.5098 23.7832 60.3563 24.1205 61.3721 24.1205C62.3879 24.1205 63.2344 23.7832 63.9116 23.1085C64.5888 22.4338 64.8428 21.4217 64.8428 20.241C64.8428 19.0603 64.5042 18.0483 63.9116 17.3736C63.3191 16.6989 62.3879 16.3615 61.3721 16.3615C60.3563 16.3615 59.5098 16.6989 58.8326 17.3736C58.1554 17.9639 57.9014 18.976 57.9014 20.241Z" fill="#1E396B"/>
<path d="M71.1916 27.0722V13.3252H74.9163V27.0722H71.1916ZM73.054 11.4697C72.3767 11.4697 71.8688 11.3011 71.3609 10.8794C71.0223 10.4577 70.7684 9.95167 70.7684 9.19264C70.7684 8.51794 70.9377 8.01191 71.3609 7.50589C71.7842 7.0842 72.2921 6.91553 73.054 6.91553C73.8158 6.91553 74.2391 7.0842 74.747 7.50589C75.1702 8.01191 75.3395 8.51794 75.3395 9.19264C75.3395 9.86733 75.1702 10.3734 74.747 10.7107C74.2391 11.3011 73.7312 11.4697 73.054 11.4697Z" fill="#1E396B"/>
<path d="M81.8577 13.2407V14.9274C82.5349 13.6624 83.974 12.9033 86.0056 12.9033C89.2223 12.9033 91.0847 15.0118 91.0847 18.3852V26.9877H87.36V18.8069C87.36 16.9515 86.5981 16.1081 84.9898 16.1081C83.1275 16.1081 82.1963 17.2889 82.1963 19.0599V26.9877H78.4716V13.2407H81.8577Z" fill="#1E396B"/>
<path d="M99.3805 22.5177L102.767 13.1562H106.66L101.073 26.9032H97.6028L92.1005 13.1562H96.0791L99.3805 22.5177Z" fill="#1E396B"/>
<path d="M120.628 21.1686H110.554C110.808 23.1084 112.078 24.1204 113.856 24.1204C115.041 24.1204 116.141 23.6144 116.48 22.6023H120.205C119.781 24.0361 119.02 25.1325 117.834 25.9758C116.649 26.9035 115.21 27.2409 113.602 27.2409C111.57 27.2409 109.877 26.5662 108.607 25.2168C107.338 23.9517 106.66 22.1806 106.66 19.9879C106.66 17.8794 107.338 16.277 108.607 14.8433C109.793 13.4096 111.57 12.7349 113.602 12.7349C115.633 12.7349 117.242 13.4096 118.596 14.759C119.781 16.1927 120.543 17.7951 120.543 19.9035V21.1686H120.628ZM110.554 18.4698H116.903C116.649 16.9517 115.464 15.8553 113.771 15.8553C112.078 15.8553 110.978 16.9517 110.554 18.4698Z" fill="#1E396B"/>
<path d="M122.152 22.5177H125.876C125.961 23.5297 126.638 24.3731 128.162 24.3731C129.601 24.3731 130.363 23.8671 130.363 23.1924C130.363 22.2647 129.178 22.0117 127.654 21.7587C126.892 21.59 126.13 21.5056 125.368 21.2526C123.845 20.8309 122.66 19.5659 122.66 17.6261C122.66 16.3611 123.167 15.2647 124.183 14.4213C125.199 13.5779 126.553 13.1562 128.162 13.1562C130.024 13.1562 131.379 13.5779 132.394 14.59C133.326 15.5177 133.833 16.6141 133.918 17.7948H130.278C130.193 16.8671 129.516 16.1081 128.162 16.1081C126.977 16.1081 126.215 16.6984 126.215 17.3731C126.215 18.3008 127.4 18.5538 128.924 18.8069C129.601 18.9755 130.447 19.0599 131.209 19.3129C132.733 19.7346 133.918 20.9996 133.918 23.0237C133.918 24.2888 133.41 25.3852 132.394 26.1442C131.379 27.0719 129.94 27.3249 128.077 27.3249C124.353 27.3249 122.321 25.7225 122.152 22.5177Z" fill="#1E396B"/>
<path d="M142.891 23.6987V26.9036C142.468 26.9879 141.96 27.0722 141.113 27.0722C138.32 27.0722 136.796 25.6385 136.796 22.8554V16.024H134.934V13.0722H136.796V9.69873H140.521V13.0722H142.807V16.024H140.69V22.3493C140.69 23.277 141.113 23.6144 142.129 23.6144H142.891V23.6987Z" fill="#1E396B"/>
<path d="M144.584 23.1925C144.584 20.7467 146.277 19.313 149.917 18.8069L153.557 18.3009V18.0479C153.557 16.7828 152.795 16.0238 151.102 16.0238C149.579 16.0238 148.732 16.5298 148.563 17.7105H144.923C145.092 16.4455 145.6 15.2648 146.616 14.3371C147.547 13.4093 149.155 12.9033 151.187 12.9033C155.166 12.9033 157.197 14.7587 157.197 18.0479V24.5419C157.197 25.5539 157.367 26.3973 157.62 26.9877H154.065C154.065 26.9877 153.896 26.313 153.896 25.4696C152.965 26.6503 151.526 27.325 149.494 27.325C146.277 27.325 144.584 25.6383 144.584 23.1925ZM153.557 20.7467L150.256 21.2527C148.817 21.5057 148.14 22.0118 148.14 22.9395C148.14 23.8672 148.817 24.4575 150.256 24.4575C152.372 24.4575 153.557 23.2768 153.557 21.4214V20.7467Z" fill="#1E396B"/>
<path d="M159.398 22.5177H163.123C163.207 23.5297 163.885 24.3731 165.408 24.3731C166.847 24.3731 167.609 23.8671 167.609 23.1924C167.609 22.2647 166.424 22.0117 164.9 21.7587C164.139 21.59 163.377 21.5056 162.615 21.2526C161.091 20.8309 159.906 19.5659 159.906 17.6261C159.906 16.3611 160.414 15.2647 161.43 14.4213C162.446 13.4936 163.8 13.1562 165.408 13.1562C167.271 13.1562 168.625 13.5779 169.641 14.59C170.572 15.5177 171.08 16.6141 171.165 17.7948H167.609C167.525 16.8671 166.847 16.1081 165.493 16.1081C164.308 16.1081 163.546 16.6984 163.546 17.3731C163.546 18.3008 164.731 18.5538 166.255 18.8069C166.932 18.9755 167.779 19.0599 168.54 19.3129C170.064 19.7346 171.249 20.9996 171.249 23.0237C171.249 24.2888 170.741 25.3852 169.726 26.1442C168.71 27.0719 167.271 27.3249 165.408 27.3249C161.599 27.3249 159.652 25.7225 159.398 22.5177Z" fill="#1E396B"/>
<path d="M173.704 27.0719V13.3249H177.429V27.0719H173.704ZM175.567 11.4695C174.889 11.4695 174.381 11.3009 173.873 10.8792C173.366 10.4575 173.281 9.95146 173.281 9.36109C173.281 8.68639 173.45 8.18037 173.873 7.67435C174.297 7.25266 174.805 7.08398 175.567 7.08398C176.244 7.08398 176.752 7.25266 177.26 7.67435C177.683 8.09603 177.852 8.60206 177.852 9.36109C177.852 10.0358 177.683 10.5418 177.26 10.8792C176.836 11.3009 176.244 11.4695 175.567 11.4695Z" fill="#1E396B"/>
<path d="M14.7293 2.53027H11.5126C8.88842 2.53027 6.43353 3.96401 4.65586 6.6628C2.87818 9.19292 1.94702 12.6508 1.94702 16.2773C1.94702 20.0724 2.96284 23.5303 4.82516 26.1447C6.60284 28.6749 8.97307 30.0242 11.428 30.0242H14.6447C17.0149 29.8556 19.2159 28.4218 20.8242 25.8917C22.6019 23.2773 23.5331 19.9038 23.5331 16.2773C23.5331 12.8194 22.6019 9.3616 20.9089 6.83148C19.3852 4.30136 17.0996 2.86762 14.7293 2.53027Z" fill="#875F27"/>
<path d="M20.3163 16.3616C20.3163 12.7351 19.3005 9.69892 17.7768 7.25314C16.6763 5.65073 15.4066 4.38567 13.8828 3.7953V3.12061H11.2587C6.34889 3.12061 2.28563 9.02422 2.28563 16.2772C2.28563 20.0724 3.38609 23.4459 5.07912 25.8917C6.68749 28.0845 8.88842 29.5182 11.2587 29.5182H13.8828V28.9278C17.6921 27.1567 20.3163 22.2652 20.3163 16.3616Z" fill="#F8B828"/>
<path d="M14.0521 29.6026H11.2586C8.88842 29.6026 6.68749 28.2532 4.99446 25.8074C3.21679 23.2773 2.20097 19.9038 2.20097 16.193C2.20097 8.85563 6.34888 2.86768 11.3433 2.86768H14.1368V3.45804C15.5759 4.21707 16.9303 5.31346 17.9461 6.91587C19.5545 9.44599 20.4856 12.6508 20.4856 16.1086C20.4856 21.9279 17.9461 26.9882 14.2214 28.7592L14.0521 29.6026ZM11.3433 3.20503C6.51818 3.20503 2.53958 9.0243 2.53958 16.2773C2.53958 19.9038 3.55539 23.2773 5.24842 25.7231C6.85679 28.0845 9.05772 29.3496 11.3433 29.3496H13.8828V28.7592H13.9675C15.7452 27.9159 17.2689 26.3135 18.454 24.1207C19.6391 21.9279 20.2317 19.0604 20.2317 16.2773C20.2317 12.9038 19.3005 9.699 17.7768 7.25322C16.5917 5.65081 15.2373 4.47009 13.8828 3.87972H13.7982V3.20503H11.3433Z" fill="#B28445"/>
<path d="M20.5703 7.16866C18.9619 4.63854 16.6763 3.03613 14.1368 3.03613C9.14237 3.12047 5.07912 9.02409 5.07912 16.1928C5.07912 19.9879 6.17958 23.3614 7.87261 25.8072C9.48098 28 11.6819 29.4337 14.0521 29.4337C18.9619 29.4337 23.0252 23.5301 23.0252 16.2771C22.9405 12.8193 22.094 9.61445 20.5703 7.16866ZM14.56 26.2289C14.3907 26.2289 14.3061 26.2289 14.1368 26.2289C12.3591 26.2289 10.7507 25.1325 9.48098 23.5301C8.21121 21.8434 7.3647 19.3976 7.3647 16.6988C7.3647 16.5301 7.3647 16.4458 7.3647 16.2771C7.3647 10.8795 10.4121 6.32529 14.0521 6.32529C14.2214 6.32529 14.3061 6.32529 14.4754 6.32529C17.9461 6.66264 20.7396 10.9638 20.7396 16.2771C20.7396 16.4458 20.7396 16.5301 20.7396 16.6988C20.6549 21.8434 17.9461 25.8916 14.56 26.2289Z" fill="#F6E245"/>
<path d="M14.0521 29.6026C11.6819 29.6026 9.48097 28.2532 7.78795 25.8074C6.01027 23.2773 4.99446 19.9038 4.99446 16.193C4.99446 8.85563 9.05772 2.86768 14.0521 2.86768C16.5917 2.86768 18.8773 4.30141 20.5703 7.00021C22.1786 9.53033 23.1098 12.7351 23.1098 16.193C23.0252 23.6147 18.9619 29.6026 14.0521 29.6026ZM14.0521 3.20503C9.22702 3.20503 5.24841 9.0243 5.24841 16.2773C5.24841 19.9038 6.26423 23.2773 7.95725 25.7231C9.56562 28.0845 11.7666 29.3496 14.0521 29.3496C18.8773 29.3496 22.8559 23.5303 22.8559 16.2773C22.8559 12.9038 21.9247 9.699 20.401 7.25322C18.708 4.63876 16.507 3.20503 14.0521 3.20503ZM14.0521 26.3978C12.2745 26.3978 10.5814 25.3857 9.31167 23.6147C7.95725 21.8436 7.19539 19.3135 7.19539 16.699C7.19539 16.5303 7.19539 16.446 7.19539 16.2773C7.19539 10.711 10.2428 6.15683 14.1368 6.15683C14.3061 6.15683 14.3907 6.15683 14.56 6.15683C18.2 6.49418 20.9935 10.8797 20.9935 16.2773C20.9935 16.446 20.9935 16.5303 20.9935 16.699C20.8242 21.8436 18.1154 26.0604 14.56 26.3135C14.3061 26.3978 14.2214 26.3978 14.0521 26.3978ZM14.0521 6.49418C10.4121 6.49418 7.44934 10.8797 7.44934 16.3617C7.44934 16.5303 7.44934 16.6147 7.44934 16.7833C7.534 19.3978 8.29586 21.8436 9.56562 23.446C10.8354 25.1327 12.4438 26.1448 14.0521 26.1448C14.2214 26.1448 14.3061 26.1448 14.4754 26.1448C17.8614 25.8074 20.4856 21.7592 20.6549 16.7833C20.6549 16.6147 20.6549 16.5303 20.6549 16.3617C20.6549 11.2171 17.9461 6.91587 14.4754 6.49418C14.3061 6.49418 14.0521 6.49418 14.0521 6.49418Z" fill="#B28445"/>
<path d="M14.56 6.40967C14.3907 6.40967 14.3061 6.40967 14.1368 6.40967C14.0521 6.40967 13.8828 6.40967 13.7982 6.40967H13.8828C17.3535 6.74702 20.147 11.0482 20.147 16.3615C20.147 16.5301 20.147 16.6145 20.147 16.7832C19.9777 21.9277 17.2689 25.9759 13.8828 26.2289H13.7982C13.8828 26.2289 14.0521 26.2289 14.1368 26.2289C14.3061 26.2289 14.3907 26.2289 14.56 26.2289C17.9461 25.8916 20.7396 21.7591 20.8242 16.7832C20.8242 16.6145 20.8242 16.5301 20.8242 16.3615C20.8242 11.0482 18.0307 6.74702 14.56 6.40967Z" fill="#F8B218"/>
<path d="M14.0521 26.3978C13.9675 26.3978 13.7982 26.3978 13.7135 26.3978V26.1448H13.7982C17.1842 25.8075 19.8084 21.7593 19.9777 16.7834C19.9777 16.6147 19.9777 16.5304 19.9777 16.3617C19.9777 11.2171 17.2689 6.91591 13.7982 6.49422H13.7135V6.24121C13.9675 6.24121 14.2214 6.24121 14.6447 6.24121C18.2847 6.57856 21.0782 10.9641 21.0782 16.3617C21.0782 16.5304 21.0782 16.6147 21.0782 16.7834C20.9089 21.928 18.2 26.1448 14.6447 26.3978C14.3061 26.3978 14.2214 26.3978 14.0521 26.3978ZM15.4066 6.74724C18.2 8.09663 20.147 11.8918 20.147 16.3617C20.147 16.5304 20.147 16.6147 20.147 16.7834C20.0624 21.0846 18.0307 24.6268 15.4066 25.9762C18.2847 25.0484 20.5703 21.3376 20.5703 16.7834C20.5703 16.6147 20.5703 16.5304 20.5703 16.3617C20.6549 11.7231 18.454 7.67495 15.4066 6.74724Z" fill="#B28445"/>
<path d="M17.8614 2.53027H14.6447C12.0205 2.53027 9.56563 3.96401 7.78795 6.6628C6.01028 9.19292 5.07912 12.6508 5.07912 16.2773C5.07912 20.0724 6.09493 23.5303 7.95726 26.1447C9.73493 28.6749 12.1052 30.0242 14.56 30.0242H17.7768C20.147 29.8556 22.348 28.4218 23.9563 25.8917C25.734 23.2773 26.6652 19.9038 26.6652 16.2773C26.6652 12.8194 25.734 9.3616 24.041 6.83148C22.5173 4.30136 20.3163 2.86762 17.8614 2.53027Z" fill="#875F27"/>
<path d="M23.4484 16.3616C23.4484 12.7351 22.4326 9.69892 20.9089 7.25314C19.8084 5.65073 18.5387 4.38567 17.0149 3.7953V3.12061H14.3907C9.48098 3.12061 5.41772 9.02422 5.41772 16.2772C5.41772 20.0724 6.51819 23.4459 8.21121 25.8917C9.81958 28.0845 12.0205 29.5182 14.3907 29.5182H17.0149V28.9278C20.8242 27.1567 23.4484 22.2652 23.4484 16.3616Z" fill="#F8B828"/>
<path d="M17.3535 29.6026H14.5601C12.1898 29.6026 9.98889 28.2532 8.29587 25.8074C6.51819 23.2773 5.50238 19.8195 5.50238 16.193C5.50238 8.85563 9.56564 2.86768 14.5601 2.86768H17.3535V3.45804C18.7926 4.21707 20.147 5.31346 21.1628 6.91587C22.7712 9.44599 23.7024 12.6508 23.7024 16.1086C23.7024 18.9761 23.1098 21.7592 21.9247 24.0364C20.7396 26.2291 19.2159 27.9159 17.4382 28.7592L17.3535 29.6026ZM14.5601 3.20503C9.73494 3.20503 5.75633 9.0243 5.75633 16.2773C5.75633 19.9038 6.77215 23.2773 8.46517 25.7231C10.0735 28.0845 12.2745 29.3496 14.5601 29.3496H17.0996V28.7592H17.1842C18.9619 27.9159 20.4856 26.3135 21.6708 24.1207C22.8559 21.9279 23.4484 19.0604 23.4484 16.2773C23.4484 12.9038 22.5173 9.699 20.9935 7.25322C19.8084 5.65081 18.454 4.47009 17.0996 3.87972H17.0149V3.20503H14.5601Z" fill="#B28445"/>
<path d="M23.6177 7.16866C22.0094 4.63854 19.7238 3.03613 17.1842 3.03613C12.2745 3.03613 8.21121 8.93975 8.21121 16.1928C8.21121 19.9879 9.31168 23.3614 11.0047 25.8072C12.6131 28 14.814 29.4337 17.1842 29.4337C22.094 29.4337 26.1573 23.5301 26.1573 16.2771C26.2419 12.8193 25.1414 9.61445 23.6177 7.16866ZM17.6921 26.2289C17.5228 26.2289 17.4382 26.2289 17.2689 26.2289C15.4912 26.2289 13.8828 25.1325 12.6131 23.5301C11.3433 21.8434 10.4968 19.3976 10.4968 16.6988C10.4968 16.5301 10.4968 16.4458 10.4968 16.2771C10.4968 10.8795 13.5442 6.32529 17.1842 6.32529C17.3535 6.32529 17.4382 6.32529 17.6075 6.32529C21.0782 6.66264 23.8717 10.9638 23.8717 16.2771C23.8717 16.4458 23.8717 16.5301 23.8717 16.6988C23.8717 21.8434 21.0782 25.8916 17.6921 26.2289Z" fill="#F6E245"/>
<path d="M17.1842 29.6026C14.814 29.6026 12.6131 28.2532 10.92 25.8074C9.14237 23.2773 8.12656 19.8195 8.12656 16.193C8.12656 8.85563 12.1898 2.86768 17.1842 2.86768C19.7238 2.86768 22.0093 4.30141 23.7024 7.00021C25.3107 9.53033 26.2419 12.7351 26.2419 16.193C26.2419 23.6147 22.1786 29.6026 17.1842 29.6026ZM17.1842 3.20503C12.3591 3.20503 8.38051 9.0243 8.38051 16.2773C8.38051 19.9038 9.39632 23.2773 11.0893 25.7231C12.6977 28.0845 14.8986 29.3496 17.1842 29.3496C22.0093 29.3496 25.988 23.5303 25.988 16.2773C25.988 12.9038 25.0568 9.699 23.5331 7.25322C21.84 4.63876 19.6391 3.20503 17.1842 3.20503ZM17.1842 26.3978C15.4066 26.3978 13.7135 25.3857 12.4438 23.6147C11.0893 21.8436 10.3275 19.3135 10.3275 16.699C10.3275 16.5303 10.3275 16.446 10.3275 16.2773C10.3275 10.711 13.3749 6.15683 17.2689 6.15683C17.4382 6.15683 17.5228 6.15683 17.6921 6.15683C21.3321 6.49418 24.1256 10.8797 24.1256 16.2773C24.1256 16.446 24.1256 16.5303 24.1256 16.699C23.9563 21.8436 21.2475 26.0604 17.6921 26.3135C17.6075 26.3978 17.3535 26.3978 17.1842 26.3978ZM17.1842 6.49418C13.5442 6.49418 10.5814 10.8797 10.5814 16.3617C10.5814 16.5303 10.5814 16.6147 10.5814 16.7833C10.6661 19.3978 11.428 21.8436 12.6977 23.446C13.9675 25.1327 15.5759 26.1448 17.1842 26.1448C17.3535 26.1448 17.4382 26.1448 17.6075 26.1448C20.9935 25.8074 23.6177 21.7592 23.787 16.7833C23.787 16.6147 23.787 16.5303 23.787 16.3617C23.787 11.2171 21.0782 6.91587 17.6075 6.49418C17.5228 6.49418 17.3535 6.49418 17.1842 6.49418Z" fill="#B28445"/>
<path d="M17.6921 6.40967C17.5228 6.40967 17.4382 6.40967 17.2689 6.40967C17.1842 6.40967 17.0149 6.40967 16.9303 6.40967H17.0149C20.4856 6.74702 23.2791 11.0482 23.2791 16.3615C23.2791 16.5301 23.2791 16.6145 23.2791 16.7832C23.1098 21.9277 20.401 25.9759 17.0149 26.2289H16.9303C17.0149 26.2289 17.1842 26.2289 17.2689 26.2289C17.4382 26.2289 17.5228 26.2289 17.6921 26.2289C21.0782 25.8916 23.8717 21.7591 23.9563 16.7832C23.9563 16.6145 23.9563 16.5301 23.9563 16.3615C23.9563 11.0482 21.1628 6.74702 17.6921 6.40967Z" fill="#F8B218"/>
<path d="M17.1842 26.3978C17.0996 26.3978 16.9303 26.3978 16.8456 26.3978V26.1448H16.9303C20.2317 25.8075 22.9405 21.7593 23.0252 16.7834C23.0252 16.6147 23.0252 16.5304 23.0252 16.3617C23.0252 11.2171 20.3163 6.91591 16.8456 6.49422H16.761V6.24121C17.0149 6.24121 17.2689 6.24121 17.6921 6.24121C21.3321 6.57856 24.1256 10.9641 24.1256 16.3617C24.1256 16.5304 24.1256 16.6147 24.1256 16.7834C23.9563 21.928 21.2475 26.1448 17.6921 26.3978C17.6075 26.3978 17.3535 26.3978 17.1842 26.3978ZM18.5386 6.74724C21.3321 8.09663 23.2791 11.8918 23.2791 16.3617C23.2791 16.5304 23.2791 16.6147 23.2791 16.7834C23.1945 21.0846 21.1628 24.6268 18.5386 25.9762C21.4168 25.0484 23.7024 21.3376 23.7024 16.7834C23.7024 16.6147 23.7024 16.5304 23.7024 16.3617C23.8717 11.7231 21.5861 7.67495 18.5386 6.74724Z" fill="#B28445"/>
<path d="M20.8242 2.53027H17.6075C14.9833 2.53027 12.5284 3.96401 10.7507 6.6628C8.97306 9.27726 8.0419 12.6508 8.0419 16.2773C8.0419 20.0724 9.05771 23.5303 10.92 26.1447C12.6977 28.6749 15.0679 30.0242 17.5228 30.0242H20.7396C23.1098 29.8556 25.3107 28.4218 26.9191 25.8917C28.6968 23.2773 29.6279 19.9038 29.6279 16.2773C29.6279 12.8194 28.6968 9.3616 27.0038 6.83148C25.5647 4.30136 23.2791 2.86762 20.8242 2.53027Z" fill="#875F27"/>
<path d="M26.4959 16.3616C26.4959 12.7351 25.48 9.69892 23.9563 7.25314C22.8559 5.65073 21.5861 4.38567 20.0624 3.7953V3.12061H17.4382C12.5284 3.12061 8.46516 9.02422 8.46516 16.2772C8.46516 20.0724 9.56563 23.4459 11.2587 25.8917C12.867 28.0845 15.068 29.5182 17.4382 29.5182H20.147V28.9278C23.8717 27.1567 26.4959 22.2652 26.4959 16.3616Z" fill="#F8B828"/>
<path d="M20.3163 29.6026H17.5228C15.1526 29.6026 12.9517 28.2532 11.2587 25.8074C9.48098 23.2773 8.46516 19.8195 8.46516 16.193C8.46516 8.85563 12.6131 2.86768 17.5228 2.86768H20.3163V3.45804C21.7554 4.21707 23.1098 5.31346 24.1256 6.91587C25.734 9.44599 26.6652 12.6508 26.6652 16.1086C26.6652 21.9279 24.1256 26.9882 20.401 28.7592L20.3163 29.6026ZM17.6075 3.20503C12.7824 3.20503 8.80377 9.0243 8.80377 16.2773C8.80377 19.9038 9.81958 23.2773 11.5126 25.7231C13.121 28.0845 15.3219 29.3496 17.6075 29.3496H20.147V28.7592H20.2317C22.0094 27.9159 23.5331 26.3135 24.7182 24.1207C25.9033 21.9279 26.4959 19.0604 26.4959 16.2773C26.4959 12.9038 25.5647 9.699 24.041 7.25322C22.9405 5.65081 21.5861 4.47009 20.147 3.87972H20.0624V3.20503H17.6075Z" fill="#B28445"/>
<path d="M26.6652 7.16915C25.0568 4.63903 22.7712 3.03662 20.2317 3.03662C15.3219 3.03662 11.2587 8.94024 11.2587 16.1932C11.2587 19.9884 12.3591 23.3619 14.0521 25.8077C15.6605 28.0005 17.8614 29.4342 20.2317 29.4342C25.1414 29.4342 29.2047 23.5306 29.2047 16.2776C29.2047 12.8198 28.2735 9.61493 26.6652 7.16915ZM20.6549 26.2294C20.4856 26.2294 20.401 26.2294 20.2317 26.2294C18.454 26.2294 16.8456 25.133 15.5759 23.5306C14.3061 21.8439 13.4596 19.3981 13.4596 16.6993C13.4596 16.5306 13.4596 16.4463 13.4596 16.2776C13.4596 10.88 16.507 6.32578 20.147 6.32578C20.3163 6.32578 20.401 6.32578 20.5703 6.32578C24.041 6.66313 26.8345 10.9643 26.8345 16.2776C26.8345 16.4463 26.8345 16.5306 26.8345 16.6993C26.8345 21.8438 24.1256 25.892 20.6549 26.2294Z" fill="#F6E245"/>
<path d="M20.3163 29.6028C17.9461 29.6028 15.7452 28.2534 14.0521 25.8076C12.2745 23.2775 11.2587 19.8196 11.2587 16.1931C11.2587 8.9401 15.2373 2.95215 20.3163 2.95215C22.8559 2.95215 25.1414 4.38588 26.8345 7.08468C28.4428 9.6148 29.374 12.8196 29.374 16.2774C29.2894 23.6148 25.3107 29.6028 20.3163 29.6028ZM20.3163 3.20516C15.4912 3.20516 11.5126 9.02444 11.5126 16.2774C11.5126 19.904 12.5284 23.2775 14.2214 25.7232C15.8298 28.0847 18.0307 29.3497 20.3163 29.3497C25.1414 29.3497 29.1201 23.5305 29.1201 16.2774C29.1201 12.904 28.1889 9.69914 26.6652 7.25335C24.8875 4.6389 22.6019 3.20516 20.3163 3.20516ZM20.3163 26.3979C18.5387 26.3979 16.8456 25.3859 15.5759 23.6148C14.2214 21.8437 13.4596 19.3136 13.4596 16.6991C13.4596 16.5305 13.4596 16.4461 13.4596 16.2774C13.4596 10.7112 16.507 6.15697 20.401 6.15697C20.5703 6.15697 20.6549 6.15697 20.8242 6.15697C24.4642 6.49432 27.2577 10.8799 27.2577 16.2774C27.2577 16.4461 27.2577 16.5305 27.2577 16.6991C27.0884 21.8437 24.3796 26.0606 20.8242 26.3136C20.5703 26.3979 20.3163 26.3979 20.3163 26.3979ZM20.3163 6.49432C16.6763 6.49432 13.7135 10.8799 13.7135 16.3618C13.7135 16.5305 13.7135 16.6148 13.7135 16.7835C13.7982 19.3979 14.56 21.8437 15.8298 23.4461C17.0996 25.1329 18.708 26.1449 20.3163 26.1449C20.4856 26.1449 20.5703 26.1449 20.7396 26.1449C24.1256 25.8076 26.7498 21.7594 26.9191 16.7835C26.9191 16.6148 26.9191 16.5305 26.9191 16.3618C26.9191 11.2172 24.2103 6.916 20.7396 6.49432C20.5703 6.49432 20.3163 6.49432 20.3163 6.49432Z" fill="#B28445"/>
<path d="M20.6549 6.40967C20.4856 6.40967 20.401 6.40967 20.2317 6.40967C20.147 6.40967 19.9777 6.40967 19.8931 6.40967H19.9777C23.4484 6.74702 26.2419 11.0482 26.2419 16.3615C26.2419 16.5301 26.2419 16.6145 26.2419 16.7832C26.0726 21.9277 23.3638 25.9759 19.9777 26.2289H19.8931C19.9777 26.2289 20.147 26.2289 20.2317 26.2289C20.401 26.2289 20.4856 26.2289 20.6549 26.2289C24.041 25.8916 26.8345 21.7591 26.9191 16.7832C26.9191 16.6145 26.9191 16.5301 26.9191 16.3615C27.0038 11.0482 24.2103 6.74702 20.6549 6.40967Z" fill="#F8B218"/>
<path d="M20.3163 26.3978C20.2317 26.3978 20.0624 26.3978 19.9777 26.3978V26.1448H20.0624C23.4484 25.8075 26.0726 21.7593 26.2419 16.7834C26.2419 16.6147 26.2419 16.5304 26.2419 16.3617C26.2419 11.2171 23.5331 6.91591 20.0624 6.49422H19.9777V6.24121C20.2317 6.24121 20.4856 6.24121 20.9089 6.24121C24.5489 6.57856 27.3424 10.9641 27.3424 16.3617C27.3424 16.5304 27.3424 16.6147 27.3424 16.7834C27.0884 21.928 24.3796 26.0605 20.8242 26.3978C20.5703 26.3978 20.3163 26.3978 20.3163 26.3978ZM21.5861 6.74724C24.3796 8.09663 26.3266 11.8918 26.3266 16.3617C26.3266 16.5304 26.3266 16.6147 26.3266 16.7834C26.2419 21.0846 24.2103 24.6268 21.5861 25.9762C24.4642 25.0484 26.7498 21.3376 26.7498 16.7834C26.7498 16.6147 26.7498 16.5304 26.7498 16.3617C26.8345 11.7231 24.6335 7.67495 21.5861 6.74724Z" fill="#B28445"/>
<path d="M18.2847 19.1445V22.3493H17.3535V21L18.2847 19.1445Z" fill="#F6E245"/>
<path d="M19.3852 17.0361L19.8084 17.7952V17.8795V22.3494H18.8773V17.9638L19.3852 17.0361Z" fill="#F6E245"/>
<path d="M21.2475 17.3735V22.3494H20.3163V19.3133L20.5703 19.1446L21.1628 17.7952L21.2475 17.3735Z" fill="#F6E245"/>
<path d="M22.8559 14.3374V22.3495H21.9247V16.1928L22.8559 14.3374Z" fill="#F6E245"/>
<path d="M20.3163 17.7112H20.0624L19.3852 16.3618H19.8084L20.3163 17.7112Z" fill="#875F27"/>
<path d="M17.3535 21.0005H16.9303V22.4342H17.3535V21.0005Z" fill="#875F27"/>
<path d="M17.3535 21.0004H16.9303L17.8614 19.145H18.2847L17.3535 21.0004Z" fill="#875F27"/>
<path d="M18.9619 17.9644H18.5387V22.3499H18.9619V17.9644Z" fill="#875F27"/>
<path d="M18.8773 17.9643H18.5387L18.9619 17.0366H19.3852L18.8773 17.9643Z" fill="#875F27"/>
<path d="M21.1628 17.7957H20.6549L20.9089 17.374H21.2475L21.1628 17.7957Z" fill="#875F27"/>
<path d="M20.5703 19.1448H20.0624L20.6549 17.7954H21.1628L20.5703 19.1448Z" fill="#875F27"/>
<path d="M20.3163 19.3137H20.0624V19.145H20.5703L20.3163 19.3137Z" fill="#875F27"/>
<path d="M20.4856 19.3135H20.0624V22.5183H20.4856V19.3135Z" fill="#875F27"/>
<path d="M22.0093 16.1929H21.5861V22.3495H22.0093V16.1929Z" fill="#875F27"/>
<path d="M21.9247 16.1933H21.5861L22.5173 14.3379H22.8559L21.9247 16.1933Z" fill="#875F27"/>
<path d="M23.4484 12.4823H23.0252L22.8559 11.8076H23.2791L23.4484 12.4823Z" fill="#875F27"/>
<path d="M22.6019 10.4582H22.1787L21.9247 9.95215H22.348L22.6019 10.4582Z" fill="#875F27"/>
<path d="M20.3163 14.9279H20.0624L22.1787 10.458H22.6019L20.3163 14.9279Z" fill="#875F27"/>
<path d="M19.8084 16.3619H19.3852L18.9619 15.5186H19.4698L19.8084 16.3619Z" fill="#875F27"/>
<path d="M18.7926 14.1689H18.3694L18.9619 12.9038H19.4698L18.7926 14.1689Z" fill="#875F27"/>
<path d="M16.5917 18.8918H16.0838L18.3694 14.1689H18.7926L16.5917 18.8918Z" fill="#875F27"/>
<path d="M17.1842 20.0728H16.761L16.0838 18.8921H16.5917L17.1842 20.0728Z" fill="#875F27"/>
<path d="M22.348 9.95215H23.4484V12.4823L23.2791 11.8076L21.0782 16.3618L20.3163 17.7112L19.8084 16.3618L19.4698 15.5184L17.1842 20.0726L16.5917 18.8919L18.7926 14.169L19.4698 12.904L20.0624 14.169L20.3163 14.9281L22.6019 10.4582L22.348 9.95215Z" fill="#F6E245"/>
<path d="M34.9609 38.2893H33.7758L35.8074 32.9761H36.9926L39.0242 38.2893H37.8391L37.5005 37.3616H35.2995L34.9609 38.2893ZM36.4 34.3255L35.6381 36.4339H37.1619L36.4 34.3255Z" fill="#1E396B"/>
<path d="M39.9554 37.024H41.0558C41.0558 37.3613 41.3098 37.53 41.733 37.53C42.1563 37.53 42.3256 37.3613 42.3256 37.1927C42.3256 37.024 41.987 36.8553 41.5637 36.771C41.3098 36.771 41.1405 36.6866 40.9712 36.6023C40.5479 36.518 40.2093 36.0963 40.2093 35.5903C40.2093 35.2529 40.3786 34.9156 40.6326 34.6625C40.8865 34.4095 41.3098 34.3252 41.8177 34.3252C42.3256 34.3252 42.7488 34.4939 43.0028 34.7469C43.2567 34.9999 43.426 35.3372 43.426 35.6746H42.3256C42.3256 35.4216 42.0716 35.1686 41.733 35.1686C41.3944 35.1686 41.1405 35.3372 41.1405 35.5059C41.1405 35.6746 41.4791 35.8433 41.9023 35.9276C42.1563 35.9276 42.3256 36.0119 42.4949 36.0963C42.9181 36.1806 43.2567 36.6023 43.2567 37.1927C43.2567 37.53 43.0874 37.8674 42.8335 38.1204C42.4949 38.3734 42.1563 38.4577 41.6484 38.4577C40.6326 38.3734 40.04 37.9517 39.9554 37.024Z" fill="#1E396B"/>
<path d="M48.5898 36.687H45.7116C45.7963 37.2774 46.1349 37.5304 46.6428 37.5304C46.9814 37.5304 47.2354 37.3617 47.4047 37.1087H48.5051C48.4205 37.5304 48.1665 37.7834 47.8279 38.0364C47.4893 38.2894 47.0661 38.3737 46.6428 38.3737C46.0502 38.3737 45.5423 38.2051 45.2037 37.7834C44.8651 37.446 44.6112 36.8557 44.6112 36.2653C44.6112 35.6749 44.7805 35.1689 45.2037 34.8316C45.5423 34.4099 46.0502 34.2412 46.6428 34.2412C47.2354 34.2412 47.6586 34.4099 48.0819 34.8316C48.4205 35.2533 48.6744 35.7593 48.6744 36.3496L48.5898 36.687ZM45.7963 35.8436H47.574C47.4893 35.4219 47.1507 35.0846 46.6428 35.0846C46.1349 35.0846 45.8809 35.4219 45.7963 35.8436Z" fill="#1E396B"/>
<path d="M52.0605 37.3618V38.2895C51.9758 38.2895 51.7219 38.2895 51.5526 38.2895C50.7061 38.2895 50.3674 37.8678 50.3674 37.1088V35.169H49.8595V34.3257H50.3674V33.3979H51.4679V34.3257H52.1451V35.169H51.5526V36.9401C51.5526 37.1931 51.7219 37.2775 51.9758 37.2775L52.0605 37.3618Z" fill="#1E396B"/>
<path d="M59.933 38.2891H58.8326V35.9276C58.8326 35.4216 58.5786 35.1686 58.24 35.1686C57.7321 35.1686 57.4782 35.5059 57.4782 36.0119V38.2891H56.3777V34.4095H57.3935V34.9156C57.5628 34.5782 57.9861 34.3252 58.5786 34.3252C59.0865 34.3252 59.5098 34.4939 59.7637 34.9156C60.1023 34.5782 60.5256 34.3252 61.0335 34.3252C61.9647 34.3252 62.4726 34.9156 62.4726 35.8433V38.2891H61.3721V35.9276C61.3721 35.4216 61.1182 35.1686 60.7795 35.1686C60.2716 35.1686 60.0177 35.5059 60.0177 36.0119L59.933 38.2891Z" fill="#1E396B"/>
<path d="M63.9963 37.1087C63.9963 36.434 64.5042 36.0123 65.52 35.8436L66.5358 35.6749C66.5358 35.3376 66.2819 35.0846 65.8586 35.0846C65.4354 35.0846 65.1814 35.2533 65.0967 35.5906H64.0809C64.0809 35.2533 64.2502 34.9159 64.5888 34.6629C64.9274 34.4099 65.266 34.2412 65.8586 34.2412C67.0437 34.2412 67.6363 34.7472 67.6363 35.6749V37.5304C67.6363 37.8677 67.6363 38.0364 67.7209 38.2051H66.7051C66.7051 38.2051 66.7051 38.0364 66.7051 37.7834C66.4512 38.1207 66.0279 38.2894 65.4354 38.2894C64.5042 38.3737 63.9963 37.8677 63.9963 37.1087ZM66.5358 36.5183L65.6047 36.687C65.1814 36.7713 65.0121 36.94 65.0121 37.193C65.0121 37.446 65.1814 37.6147 65.6047 37.6147C66.1972 37.6147 66.5358 37.2774 66.5358 36.687V36.5183Z" fill="#1E396B"/>
<path d="M69.0753 37.024H70.1758C70.1758 37.3613 70.4298 37.53 70.853 37.53C71.2763 37.53 71.4456 37.3613 71.4456 37.1927C71.4456 37.024 71.107 36.8553 70.6837 36.771C70.4298 36.771 70.2605 36.6866 70.0912 36.6023C69.6679 36.518 69.3293 36.0963 69.3293 35.5903C69.3293 35.2529 69.4986 34.9156 69.7526 34.6625C70.0912 34.4095 70.4298 34.3252 70.9377 34.3252C71.4456 34.3252 71.8688 34.4939 72.1228 34.7469C72.3767 34.9999 72.546 35.3372 72.546 35.6746H71.5302C71.5302 35.4216 71.2763 35.1686 70.9377 35.1686C70.5991 35.1686 70.3451 35.3372 70.3451 35.5059C70.3451 35.6746 70.6837 35.8433 71.107 35.9276C71.3609 35.9276 71.5302 36.0119 71.6995 36.0963C72.1228 36.1806 72.4614 36.6023 72.4614 37.1927C72.4614 37.53 72.2921 37.8674 72.0381 38.1204C71.6995 38.3734 71.3609 38.4577 70.853 38.4577C69.7526 38.3734 69.16 37.9517 69.0753 37.024Z" fill="#1E396B"/>
<path d="M73.8158 37.1087C73.8158 36.434 74.3237 36.0123 75.3395 35.8436L76.3553 35.6749C76.3553 35.3376 76.1014 35.0846 75.6781 35.0846C75.2549 35.0846 75.0009 35.2533 74.9163 35.5906H73.9005C73.9005 35.2533 74.0698 34.9159 74.4084 34.6629C74.747 34.4099 75.0856 34.2412 75.6781 34.2412C76.8633 34.2412 77.4558 34.7472 77.4558 35.6749V37.5304C77.4558 37.8677 77.4558 38.0364 77.5405 38.2051H76.5247C76.5247 38.2051 76.5247 38.0364 76.5247 37.7834C76.2707 38.1207 75.8474 38.2894 75.2549 38.2894C74.3237 38.3737 73.8158 37.8677 73.8158 37.1087ZM76.44 36.5183L75.5088 36.687C75.0856 36.7713 74.9163 36.94 74.9163 37.193C74.9163 37.446 75.0856 37.6147 75.5088 37.6147C76.1014 37.6147 76.44 37.2774 76.44 36.687V36.5183Z" fill="#1E396B"/>
<path d="M84.5665 34.4095H85.9209L84.3972 36.0963L86.0056 38.3734H84.7358L83.72 36.8553L83.1274 37.53V38.4577H82.027V32.8071H83.1274V36.265L84.5665 34.4095Z" fill="#1E396B"/>
<path d="M87.6986 33.9037C87.5293 33.9037 87.36 33.8194 87.1907 33.7351C87.1061 33.6507 87.0214 33.482 87.0214 33.3134C87.0214 33.1447 87.1061 32.976 87.1907 32.8073C87.2754 32.723 87.4447 32.6387 87.6986 32.6387C87.8679 32.6387 88.0372 32.723 88.2065 32.8073C88.2912 32.8917 88.3758 33.0604 88.3758 33.3134C88.3758 33.482 88.2912 33.6507 88.2065 33.7351C88.1219 33.8194 87.9526 33.9037 87.6986 33.9037ZM87.1907 38.2893V34.4098H88.2912V38.2893H87.1907Z" fill="#1E396B"/>
<path d="M91.0847 34.4095V34.9156C91.254 34.5782 91.6772 34.3252 92.2698 34.3252C93.2009 34.3252 93.7088 34.9156 93.7088 35.8433V38.2891H92.6084V35.9276C92.6084 35.4216 92.3544 35.1686 91.9312 35.1686C91.4233 35.1686 91.0847 35.5059 91.0847 36.0119V38.2891H89.9842V34.4095H91.0847Z" fill="#1E396B"/>
<path d="M96.0791 33.9037C95.9098 33.9037 95.7405 33.8194 95.5712 33.7351C95.4865 33.6507 95.4019 33.482 95.4019 33.3134C95.4019 33.1447 95.4865 32.976 95.5712 32.8073C95.6558 32.723 95.8251 32.6387 96.0791 32.6387C96.2484 32.6387 96.4177 32.723 96.587 32.8073C96.6716 32.8917 96.7563 33.0604 96.7563 33.3134C96.7563 33.482 96.6716 33.6507 96.587 33.7351C96.4177 33.8194 96.2484 33.9037 96.0791 33.9037ZM95.4865 38.2893V34.4098H96.587V38.2893H95.4865Z" fill="#1E396B"/>
<path d="M98.4493 37.1084H99.6344L98.9572 39.3855H98.026L98.4493 37.1084Z" fill="#1E396B"/>
<path d="M106.576 34.4095H107.93L106.407 36.0963L108.015 38.3734H106.745L105.729 36.8553L105.137 37.53V38.4577H104.036V32.8071H105.137V36.265L106.576 34.4095Z" fill="#1E396B"/>
<path d="M108.946 37.1087C108.946 36.434 109.454 36.0123 110.47 35.8436L111.486 35.6749C111.486 35.3376 111.232 35.0846 110.808 35.0846C110.385 35.0846 110.131 35.2533 110.047 35.5906H109.031C109.031 35.2533 109.2 34.9159 109.539 34.6629C109.877 34.4099 110.216 34.2412 110.808 34.2412C111.993 34.2412 112.586 34.7472 112.586 35.6749V37.5304C112.586 37.8677 112.586 38.0364 112.671 38.2051H111.655C111.655 38.2051 111.655 38.0364 111.655 37.7834C111.401 38.1207 110.978 38.2894 110.385 38.2894C109.454 38.3737 108.946 37.8677 108.946 37.1087ZM111.486 36.5183L110.554 36.687C110.131 36.7713 109.962 36.94 109.962 37.193C109.962 37.446 110.131 37.6147 110.554 37.6147C111.147 37.6147 111.486 37.2774 111.486 36.687V36.5183Z" fill="#1E396B"/>
<path d="M114.533 39.8916L115.21 38.2892L113.687 34.4097H114.872L115.803 37.0241L116.734 34.4097H117.834L115.634 39.8916H114.533Z" fill="#1E396B"/>
<path d="M118.766 37.1087C118.766 36.434 119.274 36.0123 120.289 35.8436L121.305 35.6749C121.305 35.3376 121.051 35.0846 120.628 35.0846C120.205 35.0846 119.951 35.2533 119.866 35.5906H118.85C118.85 35.2533 119.02 34.9159 119.358 34.6629C119.697 34.4099 120.035 34.2412 120.628 34.2412C121.813 34.2412 122.406 34.7472 122.406 35.6749V37.5304C122.406 37.8677 122.406 38.0364 122.49 38.2051H121.474C121.474 38.2051 121.474 38.0364 121.474 37.7834C121.22 38.1207 120.797 38.2894 120.205 38.2894C119.273 38.3737 118.766 37.8677 118.766 37.1087ZM121.39 36.5183L120.459 36.687C120.035 36.7713 119.866 36.94 119.866 37.193C119.866 37.446 120.035 37.6147 120.459 37.6147C121.051 37.6147 121.39 37.2774 121.39 36.687V36.5183Z" fill="#1E396B"/>
<path d="M130.532 38.2891H129.516V35.9276C129.516 35.4216 129.262 35.1686 128.924 35.1686C128.416 35.1686 128.162 35.5059 128.162 36.0119V38.2891H126.977V34.4095H127.993V34.9156C128.162 34.5782 128.585 34.3252 129.178 34.3252C129.686 34.3252 130.109 34.4939 130.363 34.9156C130.701 34.5782 131.125 34.3252 131.633 34.3252C132.564 34.3252 133.072 34.9156 133.072 35.8433V38.2891H132.056V35.9276C132.056 35.4216 131.802 35.1686 131.463 35.1686C130.955 35.1686 130.701 35.5059 130.701 36.0119V38.2891H130.532Z" fill="#1E396B"/>
<path d="M134.68 37.1087C134.68 36.434 135.188 36.0123 136.204 35.8436L137.22 35.6749C137.22 35.3376 136.966 35.0846 136.542 35.0846C136.119 35.0846 135.865 35.2533 135.78 35.5906H134.765C134.765 35.2533 134.934 34.9159 135.273 34.6629C135.611 34.4099 135.95 34.2412 136.542 34.2412C137.727 34.2412 138.32 34.7472 138.32 35.6749V37.5304C138.32 37.8677 138.32 38.0364 138.405 38.2051H137.389C137.389 38.2051 137.389 38.0364 137.389 37.7834C137.135 38.1207 136.712 38.2894 136.119 38.2894C135.103 38.3737 134.68 37.8677 134.68 37.1087ZM137.22 36.5183L136.288 36.687C135.865 36.7713 135.696 36.94 135.696 37.193C135.696 37.446 135.865 37.6147 136.288 37.6147C136.881 37.6147 137.22 37.2774 137.22 36.687V36.5183Z" fill="#1E396B"/>
<path d="M139.759 37.024H140.86C140.86 37.3613 141.113 37.53 141.537 37.53C141.96 37.53 142.129 37.3613 142.129 37.1927C142.129 37.024 141.791 36.8553 141.367 36.771C141.113 36.771 140.944 36.6866 140.775 36.6023C140.352 36.518 140.013 36.0963 140.013 35.5903C140.013 35.2529 140.182 34.9156 140.436 34.6625C140.69 34.4095 141.113 34.3252 141.621 34.3252C142.129 34.3252 142.553 34.4939 142.807 34.7469C143.06 34.9999 143.23 35.3372 143.23 35.6746H142.214C142.214 35.4216 141.96 35.1686 141.621 35.1686C141.283 35.1686 141.029 35.3372 141.029 35.5059C141.029 35.6746 141.367 35.8433 141.791 35.9276C142.045 35.9276 142.214 36.0119 142.383 36.0963C142.807 36.1806 143.145 36.6023 143.145 37.1927C143.145 37.53 142.976 37.8674 142.722 38.1204C142.383 38.3734 142.045 38.4577 141.537 38.4577C140.352 38.3734 139.844 37.9517 139.759 37.024Z" fill="#1E396B"/>
<path d="M144.5 37.1087C144.5 36.434 145.007 36.0123 146.023 35.8436L147.039 35.6749C147.039 35.3376 146.785 35.0846 146.362 35.0846C145.939 35.0846 145.685 35.2533 145.6 35.5906H144.584C144.584 35.2533 144.753 34.9159 145.092 34.6629C145.431 34.4099 145.769 34.2412 146.362 34.2412C147.547 34.2412 148.14 34.7472 148.14 35.6749V37.5304C148.14 37.8677 148.14 38.0364 148.224 38.2051H147.208C147.208 38.2051 147.208 38.0364 147.208 37.7834C146.954 38.1207 146.531 38.2894 145.939 38.2894C144.923 38.3737 144.5 37.8677 144.5 37.1087ZM147.039 36.5183L146.108 36.687C145.685 36.7713 145.515 36.94 145.515 37.193C145.515 37.446 145.685 37.6147 146.108 37.6147C146.7 37.6147 147.039 37.2774 147.039 36.687V36.5183Z" fill="#1E396B"/>
<path d="M155.42 32.6387H156.52V38.2893H155.504V37.8676C155.25 38.2049 154.827 38.458 154.234 38.458C153.642 38.458 153.219 38.2893 152.88 37.8676C152.541 37.4459 152.372 36.9399 152.372 36.3495C152.372 35.7592 152.541 35.2531 152.88 34.8314C153.219 34.4098 153.642 34.2411 154.234 34.2411C154.742 34.2411 155.166 34.4941 155.42 34.7471V32.6387ZM155.504 36.3495C155.504 36.0122 155.42 35.7592 155.25 35.5061C155.081 35.2531 154.827 35.1688 154.573 35.1688C154.319 35.1688 154.065 35.2531 153.896 35.5061C153.727 35.7592 153.642 36.0122 153.642 36.3495C153.642 36.6869 153.727 36.9399 153.896 37.1929C154.065 37.4459 154.319 37.5302 154.573 37.5302C154.827 37.5302 155.081 37.4459 155.25 37.1929C155.335 36.9399 155.504 36.6869 155.504 36.3495Z" fill="#1E396B"/>
<path d="M162.022 36.687H159.144C159.229 37.2774 159.567 37.5304 160.075 37.5304C160.414 37.5304 160.668 37.3617 160.837 37.1087H161.938C161.853 37.5304 161.599 37.7834 161.26 38.0364C160.922 38.2894 160.499 38.3737 160.075 38.3737C159.483 38.3737 158.975 38.2051 158.636 37.7834C158.298 37.446 158.044 36.8557 158.044 36.2653C158.044 35.6749 158.213 35.1689 158.636 34.8316C158.975 34.4099 159.483 34.2412 160.075 34.2412C160.668 34.2412 161.091 34.4099 161.514 34.8316C161.938 35.2533 162.107 35.7593 162.107 36.3496L162.022 36.687ZM159.144 35.8436H160.922C160.837 35.4219 160.499 35.0846 159.991 35.0846C159.567 35.0846 159.229 35.4219 159.144 35.8436Z" fill="#1E396B"/>
<path d="M164.647 39.8915H163.546V34.4095H164.562V34.9156C164.816 34.5782 165.239 34.3252 165.832 34.3252C166.424 34.3252 166.847 34.4939 167.186 34.9156C167.525 35.3372 167.694 35.8433 167.694 36.4336C167.694 37.024 167.525 37.53 167.186 37.9517C166.847 38.3734 166.424 38.5421 165.832 38.5421C165.324 38.5421 164.9 38.289 164.647 38.036V39.8915ZM164.647 36.3493C164.647 36.6866 164.731 36.9397 164.9 37.1927C165.07 37.4457 165.324 37.53 165.578 37.53C165.916 37.53 166.086 37.4457 166.255 37.1927C166.424 36.9397 166.509 36.6866 166.509 36.3493C166.509 36.0119 166.424 35.7589 166.255 35.5059C166.086 35.2529 165.832 35.1686 165.578 35.1686C165.239 35.1686 165.07 35.2529 164.9 35.5059C164.731 35.7589 164.647 36.0119 164.647 36.3493Z" fill="#1E396B"/>
<path d="M169.048 37.1087C169.048 36.434 169.556 36.0123 170.572 35.8436L171.588 35.6749C171.588 35.3376 171.334 35.0846 170.911 35.0846C170.487 35.0846 170.233 35.2533 170.149 35.5906H169.133C169.133 35.2533 169.302 34.9159 169.641 34.6629C169.98 34.4099 170.318 34.2412 170.911 34.2412C172.096 34.2412 172.688 34.7472 172.688 35.6749V37.5304C172.688 37.8677 172.688 38.0364 172.773 38.2051H171.757C171.757 38.2051 171.757 38.0364 171.757 37.7834C171.503 38.1207 171.08 38.2894 170.487 38.2894C169.556 38.3737 169.048 37.8677 169.048 37.1087ZM171.588 36.5183L170.657 36.687C170.233 36.7713 170.064 36.94 170.064 37.193C170.064 37.446 170.233 37.6147 170.657 37.6147C171.249 37.6147 171.588 37.2774 171.588 36.687V36.5183Z" fill="#1E396B"/>
<path d="M175.397 34.4095V34.9156C175.567 34.5782 175.99 34.3252 176.582 34.3252C177.514 34.3252 178.021 34.9156 178.021 35.8433V38.2891H176.921V35.9276C176.921 35.4216 176.667 35.1686 176.244 35.1686C175.736 35.1686 175.397 35.5059 175.397 36.0119V38.2891H174.297V34.4095H175.397Z" fill="#1E396B"/>
</svg>
