<svg width="16" height="16" viewBox="0 0 16 16" fill="none" xmlns="http://www.w3.org/2000/svg">
<g clip-path="url(#clip0_1_584)">
<path d="M0 8C0 3.58173 3.58173 0 8 0C12.4183 0 16 3.58173 16 8C16 12.4183 12.4183 16 8 16C3.58173 16 0 12.4183 0 8Z" fill="#3B5998"/>
<path d="M8.83383 12.7038V8.3514H10.0353L10.1945 6.85153H8.83383L8.8359 6.10083C8.8359 5.70963 8.87306 5.50003 9.43493 5.50003H10.186V4H8.9844C7.54103 4 7.03303 4.7276 7.03303 5.9512V6.8517H6.13333V8.35157H7.03303V12.7038H8.83383Z" fill="white"/>
</g>
<defs>
<clipPath id="clip0_1_584">
<rect width="16" height="16" fill="white"/>
</clipPath>
</defs>
</svg>
