<svg width="24" height="24" viewBox="0 0 24 24" fill="none" xmlns="http://www.w3.org/2000/svg">
<g clip-path="url(#clip0_1_822)">
<circle cx="11.9996" cy="12.0009" r="12.001" fill="#A6B0C0"/>
<path fill-rule="evenodd" clip-rule="evenodd" d="M19.2022 7.38525C18.6727 7.62045 18.1029 7.77885 17.5053 7.85037C18.1154 7.4846 18.5839 6.90571 18.8042 6.21594C18.234 6.55483 17.6009 6.80011 16.9284 6.93308C16.3893 6.35899 15.6208 5.99994 14.7717 5.99994C13.1401 5.99994 11.8172 7.32284 11.8172 8.95439C11.8172 9.18576 11.8436 9.41136 11.894 9.62785C9.4383 9.50496 7.26146 8.32846 5.80416 6.54091C5.54975 6.97724 5.40431 7.48461 5.40431 8.02606C5.40431 9.05088 5.92512 9.95522 6.71857 10.4851C6.23376 10.4698 5.77871 10.3368 5.37983 10.1155V10.1525C5.37983 11.5844 6.39889 12.7781 7.74963 13.0503C7.50195 13.1175 7.24082 13.154 6.97154 13.154C6.78097 13.154 6.59569 13.1353 6.41521 13.1007C6.79105 14.2743 7.8826 15.1288 9.17526 15.1528C8.16436 15.9448 6.89042 16.4176 5.50607 16.4176C5.26703 16.4176 5.03182 16.4037 4.80094 16.3758C6.10848 17.2139 7.66131 17.7035 9.32982 17.7035C14.764 17.7035 17.7357 13.2015 17.7357 9.2976C17.7357 9.16944 17.7333 9.04176 17.7271 8.91552C18.305 8.49791 18.8062 7.97758 19.2022 7.38525Z" fill="white"/>
</g>
<defs>
<clipPath id="clip0_1_822">
<rect width="24" height="24" fill="white"/>
</clipPath>
</defs>
</svg>
