<svg width="24" height="24" viewBox="0 0 24 24" fill="none" xmlns="http://www.w3.org/2000/svg">
<g clip-path="url(#clip0_1_821)">
<circle cx="11.9996" cy="12.0009" r="12.001" fill="#A6B0C0"/>
<path fill-rule="evenodd" clip-rule="evenodd" d="M8.86489 6.16809C8.86489 6.9152 8.29602 7.51983 7.40641 7.51983C6.55145 7.51983 5.98259 6.9152 6.00019 6.16809C5.98259 5.38466 6.55144 4.79764 7.42345 4.79764C8.29601 4.79764 8.84783 5.38466 8.86489 6.16809ZM6.07172 17.2901V8.58769H8.77631V17.2896H6.07172V17.2901Z" fill="white"/>
<path fill-rule="evenodd" clip-rule="evenodd" d="M10.9449 11.3669C10.9449 10.2814 10.9091 9.35603 10.8734 8.59075H13.2226L13.3474 9.78295H13.4008C13.7568 9.23114 14.6464 8.39545 16.0878 8.39545C17.867 8.39545 19.2017 9.57004 19.2017 12.1316V17.2932H16.4971V12.4705C16.4971 11.3487 16.106 10.584 15.1272 10.584C14.3796 10.584 13.935 11.1 13.7573 11.5979C13.6858 11.7762 13.6506 12.0249 13.6506 12.2746V17.2932H10.946V11.3669H10.9449Z" fill="white"/>
</g>
<defs>
<clipPath id="clip0_1_821">
<rect width="24" height="24" fill="white"/>
</clipPath>
</defs>
</svg>
