<svg width="16" height="16" viewBox="0 0 16 16" fill="none" xmlns="http://www.w3.org/2000/svg">
<path fill-rule="evenodd" clip-rule="evenodd" d="M10.0686 3.66873C10.6934 3.04389 11.7065 3.04389 12.3314 3.66873C12.9562 4.29356 12.9562 5.30662 12.3314 5.93146L9.93136 8.33145C9.30648 8.95633 8.29344 8.95633 7.66861 8.33145C7.35619 8.01905 6.84966 8.01905 6.53724 8.33145C6.22482 8.64385 6.22482 9.15041 6.53724 9.46281C7.78692 10.7125 9.81304 10.7125 11.0627 9.46281L13.4627 7.06284C14.7124 5.81316 14.7124 3.78703 13.4627 2.53735C12.213 1.28768 10.187 1.28768 8.93728 2.53735L7.73724 3.73735C7.42482 4.04978 7.42482 4.5563 7.73724 4.86873C8.04968 5.18114 8.55616 5.18114 8.86864 4.86873L10.0686 3.66873ZM6.06863 7.66873C6.69346 7.04389 7.70652 7.04389 8.33136 7.66873C8.64376 7.98114 9.15032 7.98114 9.46272 7.66873C9.7752 7.3563 9.7752 6.84978 9.46272 6.53735C8.21304 5.28768 6.18693 5.28768 4.93725 6.53735L2.53725 8.93738C1.28758 10.1871 1.28758 12.2131 2.53725 13.4628C3.78693 14.7125 5.81306 14.7125 7.06274 13.4628L8.26272 12.2628C8.5752 11.9504 8.5752 11.4439 8.26272 11.1315C7.95032 10.8191 7.44379 10.8191 7.13136 11.1315L5.93136 12.3315C5.30652 12.9563 4.29347 12.9563 3.66863 12.3315C3.04379 11.7067 3.04379 10.6935 3.66863 10.0687L6.06863 7.66873Z" fill="#374151"/>
</svg>
