<svg width="24" height="24" viewBox="0 0 24 24" fill="none" xmlns="http://www.w3.org/2000/svg">
<path fill-rule="evenodd" clip-rule="evenodd" d="M9.60002 4.79985C8.32699 4.79985 7.10609 5.30556 6.20591 6.20573C5.30574 7.10591 4.80002 8.32681 4.80002 9.59984C4.80002 10.8729 5.30574 12.0938 6.20591 12.994C7.10609 13.8941 8.32699 14.3998 9.60002 14.3998C10.8731 14.3998 12.094 13.8941 12.9941 12.994C13.8943 12.0938 14.4 10.8729 14.4 9.59984C14.4 8.32681 13.8943 7.10591 12.9941 6.20573C12.094 5.30556 10.8731 4.79985 9.60002 4.79985ZM2.40002 9.59984C2.39988 8.46669 2.6672 7.3495 3.18023 6.33913C3.69326 5.32877 4.43753 4.45376 5.3525 3.78528C6.26747 3.11679 7.3273 2.6737 8.4458 2.49204C9.5643 2.31039 10.7099 2.3953 11.7894 2.73987C12.8689 3.08443 13.8518 3.67893 14.6582 4.475C15.4646 5.27107 16.0718 6.24624 16.4303 7.3212C16.7887 8.39616 16.8884 9.54056 16.7212 10.6613C16.554 11.7821 16.1246 12.8475 15.468 13.771L21.2484 19.5514C21.467 19.7778 21.588 20.0809 21.5852 20.3955C21.5825 20.7102 21.4563 21.0111 21.2338 21.2336C21.0113 21.4561 20.7103 21.5823 20.3957 21.5851C20.0811 21.5878 19.7779 21.4668 19.5516 21.2482L13.7724 15.469C12.6953 16.235 11.428 16.6896 10.1096 16.7832C8.79123 16.8767 7.47251 16.6056 6.29798 15.9994C5.12346 15.3932 4.13845 14.4755 3.45089 13.3467C2.76334 12.2179 2.39977 10.9216 2.40002 9.59984Z" fill="#241B1B"/>
</svg>
