<svg width="20" height="20" viewBox="0 0 20 20" fill="none" xmlns="http://www.w3.org/2000/svg">
<path d="M10.8333 4.22574C13.6602 4.6301 15.8333 7.06128 15.8333 10C15.8333 13.2217 13.2217 15.8333 10 15.8333C6.77834 15.8333 4.16667 13.2217 4.16667 10C4.16667 8.30132 4.89273 6.77224 6.05146 5.70615L4.87215 4.52684C3.41217 5.89525 2.5 7.8411 2.5 10C2.5 14.1422 5.85787 17.5 10 17.5C14.1422 17.5 17.5 14.1422 17.5 10C17.5 5.85787 14.1422 2.5 10 2.5C9.71833 2.5 9.44025 2.51552 9.16667 2.54577V7.57126H10.8333V4.22574Z" fill="#43464D"/>
<path d="M6.42261 7.2558C6.09717 7.58123 6.09717 8.10888 6.42261 8.43432L8.7796 10.7913C9.1051 11.1167 9.63268 11.1167 9.9581 10.7913C10.2836 10.4659 10.2836 9.93823 9.9581 9.61282L7.60112 7.2558C7.27568 6.93036 6.74804 6.93036 6.42261 7.2558Z" fill="#43464D"/>
</svg>
