<svg width="16" height="16" viewBox="0 0 16 16" fill="none" xmlns="http://www.w3.org/2000/svg">
<g clip-path="url(#clip0_1_589)">
<path d="M0 8C0 3.58173 3.58173 0 8 0C12.4183 0 16 3.58173 16 8C16 12.4183 12.4183 16 8 16C3.58173 16 0 12.4183 0 8Z" fill="#55ACEE"/>
<path d="M7.7604 6.50255L7.7772 6.77938L7.4974 6.74548C6.47897 6.61555 5.58923 6.17488 4.83377 5.43481L4.46447 5.06761L4.36933 5.33878C4.16787 5.94328 4.29657 6.58165 4.71627 7.01098C4.9401 7.24828 4.88973 7.28218 4.50363 7.14095C4.36933 7.09575 4.2518 7.06185 4.24063 7.07878C4.20147 7.11835 4.33577 7.63241 4.44207 7.83581C4.58757 8.11828 4.88413 8.39508 5.2087 8.55891L5.4829 8.68885L5.15833 8.69451C4.84497 8.69451 4.83377 8.70015 4.86737 8.81878C4.97927 9.18598 5.42133 9.57581 5.91377 9.74528L6.26073 9.86391L5.95853 10.0447C5.51087 10.3046 4.98487 10.4514 4.45887 10.4627C4.20703 10.4684 4 10.491 4 10.5079C4 10.5644 4.6827 10.8808 5.08 11.0051C6.2719 11.3723 7.68767 11.2141 8.75087 10.587C9.5063 10.1407 10.2617 9.25378 10.6143 8.39508C10.8045 7.93748 10.9948 7.10138 10.9948 6.70028C10.9948 6.44041 11.0116 6.40651 11.3249 6.09581C11.5096 5.91501 11.6831 5.71728 11.7167 5.66081C11.7726 5.55348 11.767 5.55348 11.4816 5.64951C11.006 5.81898 10.9388 5.79638 11.1739 5.54218C11.3473 5.36138 11.5544 5.03371 11.5544 4.93768C11.5544 4.92075 11.4704 4.94898 11.3753 4.99981C11.2746 5.05631 11.0508 5.14105 10.8829 5.19191L10.5807 5.28795L10.3065 5.10151C10.1554 4.99981 9.94277 4.88685 9.83087 4.85295C9.54547 4.77385 9.109 4.78515 8.8516 4.87555C8.1521 5.12978 7.71003 5.78508 7.7604 6.50255Z" fill="white"/>
</g>
<defs>
<clipPath id="clip0_1_589">
<rect width="16" height="16" fill="white"/>
</clipPath>
</defs>
</svg>
